<?xml version="1.0" encoding="UTF-8"?>
<svg width="600" height="600" version="1.1" viewBox="0 0 159 159" xmlns="http://www.w3.org/2000/svg">
	<g transform="translate(-33.1 -56.5)">
		<rect x="36.2" y="59.5" width="153" height="153" rx="76.4" ry="76.4" fill="#040332"/>
		<path transform="rotate(-27.6)" d="m63.9 140a21.1 25.9 0 0 1-21.1 25.9 21.1 25.9 0 0 1-21.1-25.9 21.1 25.9 0 0 1 21.1-25.9 21.1 25.9 0 0 1 21.1 25.9z" fill="#fff" opacity=".99"/>
		<path d="m113 118c-27.5-0.384-43.5 19.1-43.9 44.1-0.0862 6.94 1.58 13.7 4.78 19.9-1.91 18.7 29.3 11.1 5.84-0.948-0.386-2.35-0.569-4.74-0.542-7.14 0.185-13.3 6.64-25.1 16.8-33.3 1.06-0.0265 2.12-0.0522 3.17-0.0771 11.3-0.266 31.1-0.312 42.8-0.265 9.58 0.038-6.51-22-20.1-22.3z" fill="#fff" opacity=".99"/>
		<path d="m97.3 148h54.2c8.03 0.081 7.95 11.2 0.134 11.2h-43.2c-8.19 0-11.1 0.102-11.1-5.93z" fill="#0054d1"/>
		<path d="m97.3 168h61.3c8.03 0.081 7.95 11.2 0.134 11.2h-50.3c-8.19 0-11.1 0.102-11.1-5.93z" fill="#fc0"/>
		<path d="m92.8 187h38.3c8.03 0.081 7.95 11.2 0.134 11.2h-27.3c-8.19 0-11.1 0.102-11.1-5.93z" fill="#0054d1"/>
	</g>
</svg>
