<?xml version="1.0" encoding="UTF-8" standalone="no"?>
<svg
   width="1544"
   height="500"
   version="1.1"
   viewBox="0 0 409 132"
   id="svg215"
   sodipodi:docname="banner.svg"
   inkscape:export-filename="banner-772x250.png"
   inkscape:export-xdpi="48"
   inkscape:export-ydpi="48"
   inkscape:version="1.2.1 (9c6d41e, 2022-07-14)"
   xmlns:inkscape="http://www.inkscape.org/namespaces/inkscape"
   xmlns:sodipodi="http://sodipodi.sourceforge.net/DTD/sodipodi-0.dtd"
   xmlns="http://www.w3.org/2000/svg"
   xmlns:svg="http://www.w3.org/2000/svg">
  <sodipodi:namedview
     id="namedview217"
     pagecolor="#ffffff"
     bordercolor="#666666"
     borderopacity="1.0"
     inkscape:showpageshadow="2"
     inkscape:pageopacity="0.0"
     inkscape:pagecheckerboard="0"
     inkscape:deskcolor="#d1d1d1"
     showgrid="false"
     inkscape:zoom="0.48076523"
     inkscape:cx="761.28633"
     inkscape:cy="430.56358"
     inkscape:window-width="1366"
     inkscape:window-height="719"
     inkscape:window-x="0"
     inkscape:window-y="0"
     inkscape:window-maximized="1"
     inkscape:current-layer="svg215" />
  <defs
     id="defs39">
    <mask
       id="mask1653"
       maskUnits="userSpaceOnUse">
      <rect
         x="248"
         y="-24.4"
         width="20"
         height="20"
         fill="#fff"
         stroke-width="0"
         id="rect9" />
    </mask>
    <mask
       id="mask1653-9"
       maskUnits="userSpaceOnUse">
      <rect
         x="248"
         y="-24.4"
         width="20"
         height="20"
         fill="#fff"
         stroke-width="0"
         id="rect12" />
    </mask>
    <mask
       id="mask1653-9-8"
       maskUnits="userSpaceOnUse">
      <rect
         x="248"
         y="-24.4"
         width="20"
         height="20"
         fill="#fff"
         stroke-width="0"
         id="rect15" />
    </mask>
    <mask
       id="mask1653-9-8-2"
       maskUnits="userSpaceOnUse">
      <rect
         x="248"
         y="-24.4"
         width="20"
         height="20"
         fill="#fff"
         stroke-width="0"
         id="rect18" />
    </mask>
    <mask
       id="mask1901"
       maskUnits="userSpaceOnUse">
      <rect
         x="257"
         y="15"
         width="112"
         height="30.5"
         rx="1.88"
         ry="1.49"
         fill="url(#linearGradient1905)"
         stroke-width="0"
         id="rect21" />
    </mask>
    <linearGradient
       id="linearGradient1905"
       x1="312"
       x2="312"
       y1="127"
       y2="138"
       gradientTransform="translate(.692 -110)"
       gradientUnits="userSpaceOnUse">
      <stop
         stop-color="#fff"
         offset="0"
         id="stop24" />
      <stop
         stop-color="#fff"
         stop-opacity="0"
         offset="1"
         id="stop26" />
    </linearGradient>
    <filter
       id="filter2054"
       x="0"
       y="0"
       width="1"
       height="1"
       color-interpolation-filters="sRGB">
      <feColorMatrix
         result="colormatrix1"
         values="0.299 0.587 0.114 0 0 0.299 0.587 0.114 0 0 0.299 0.587 0.114 0 0 0 0 0 1 0 "
         id="feColorMatrix29" />
    </filter>
    <filter
       id="filter2090"
       x="0"
       y="0"
       width="1"
       height="1"
       color-interpolation-filters="sRGB">
      <feColorMatrix
         result="fbSourceGraphic"
         values="0.566 0.43333 0 0 0 0.55833 0.4416 0 0 0 0 0.24167 0.75833 0 0 0 0 0 1 0 "
         id="feColorMatrix32" />
      <feColorMatrix
         in="fbSourceGraphic"
         result="fbSourceGraphicAlpha"
         values="0 0 0 -1 0 0 0 0 -1 0 0 0 0 -1 0 0 0 0 1 0"
         id="feColorMatrix34" />
      <feColorMatrix
         in="fbSourceGraphic"
         result="colormatrix1"
         values="0.566 0.43333 0 0 0 0.55833 0.4416 0 0 0 0 0.24167 0.75833 0 0 0 0 0 1 0 "
         id="feColorMatrix36" />
    </filter>
  </defs>
  <rect
     x="-0.53500003"
     y="-0.32817188"
     width="409.67422"
     height="108.79317"
     rx="0"
     ry="0"
     fill="#00abff"
     id="rect41"
     style="stroke-width:0.999874" />
  <path
     d="M 409,133 0,132.838 c 0,0 -0.28,-23.6 -0.28,-36.2 1.2e-6,-53.4 95,-96.9999976 215,-97 43.30503,-8.6e-7 107.8639,-0.4336522 150.15707,-0.22237588 30.55856,0.0340681 43.8423,7.98152418 44.3415,23.16444888 z"
     fill="#000a3e"
     stroke-width="0"
     id="path43"
     sodipodi:nodetypes="ccssccc" />
  <text
     transform="translate(8.9613755,120.71914)"
     fill="#ffffff"
     font-family="'Linux Biolinum O'"
     font-size="23.8px"
     font-weight="bold"
     letter-spacing="0.339px"
     stroke-width="0"
     word-spacing="0px"
     style="line-height:0%;font-variant-ligatures:normal;font-variant-caps:normal;font-variant-numeric:normal;font-variant-east-asian:normal;white-space:pre;shape-inside:url(#rect1909);display:inline"
     xml:space="preserve"
     id="text137"><tspan
       x="0"
       y="0"
       id="tspan1077">User Post Collections</tspan></text>
  <g
     transform="matrix(.416 0 0 .416 -8.54 -18.8)"
     id="g61">
    <rect
       x="42.7"
       y="69.2"
       width="153"
       height="153"
       rx="76.4"
       ry="76.4"
       fill="#00abff"
       fill-opacity=".593"
       id="rect45" />
    <g
       id="g59">
      <rect
         x="36.2"
         y="59.5"
         width="153"
         height="153"
         rx="76.4"
         ry="76.4"
         fill="#040332"
         id="rect47" />
      <ellipse
         cx="64.876328"
         cy="130.26717"
         fill="#ffffff"
         opacity="0.99"
         id="circle49"
         rx="20.904274"
         ry="25.9"
         style="stroke-width:0.898396"
         transform="rotate(-19.212296)" />
      <path
         d="m113 118c-27.5-0.384-43.5 19.1-43.9 44.1-0.0862 6.94 1.58 13.7 4.78 19.9-1.91 18.7 36.1 15.8 5.84-0.948-0.386-2.35-0.569-4.74-0.542-7.14 0.185-13.3 6.64-25.1 16.8-33.3 1.06-0.0265 2.12-0.0522 3.17-0.0771 11.3-0.266 31.1-0.312 42.8-0.265 9.58 0.038-6.51-22-20.1-22.3z"
         fill="#fff"
         opacity=".99"
         id="path51" />
      <path
         d="m97.3 148h54.2c8.03 0.081 7.95 11.2 0.134 11.2h-43.2c-8.19 0-11.1 0.102-11.1-5.93z"
         fill="#0054d1"
         id="path53" />
      <path
         d="m97.3 168h61.3c8.03 0.081 7.95 11.2 0.134 11.2h-50.3c-8.19 0-11.1 0.102-11.1-5.93z"
         fill="#fc0"
         id="path55" />
      <path
         d="m97.3 187h38.3c8.03 0.081 7.95 11.2 0.134 11.2h-27.3c-8.19 0-11.1 0.102-11.1-5.93z"
         fill="#0054d1"
         id="path57" />
    </g>
  </g>
  <g
     transform="matrix(1 0 0 1 4.11 -8.42)"
     stroke-width="0"
     id="g77">
    <rect
       x="257"
       y="15"
       width="112"
       height="30.5"
       rx="2"
       ry="2"
       fill="#0f72a3"
       id="rect63" />
    <g
       transform="translate(17.1 44.7)"
       filter="url(#filter2054)"
       mask="url(#mask1653)"
       id="g71">
      <rect
         x="246"
         y="-24.8"
         width="24.3"
         height="20.5"
         fill="#b4b4ff"
         id="rect65" />
      <path
         d="m251-12.9-4.79 6.99v1.64h14.9l0.791-1.15z"
         fill="#a36e42"
         id="path67" />
      <path
         d="m262-19-10.7 14.7h19.6v-8.17z"
         fill="#be7d43"
         id="path69" />
    </g>
    <rect
       x="292"
       y="23.2"
       width="63.5"
       height="7.05"
       rx="1.88"
       ry="1.49"
       fill="#fff"
       fill-opacity=".462"
       id="rect73" />
    <rect
       x="292"
       y="32.3"
       width="63.5"
       height="4.75"
       rx="1.88"
       ry="1.01"
       fill="#fff"
       fill-opacity=".255"
       id="rect75" />
  </g>
  <g
     transform="matrix(1 0 0 1 3.42 28.2)"
     stroke-width="0"
     id="g95">
    <rect
       x="257"
       y="15"
       width="112"
       height="30.5"
       rx="2"
       ry="2"
       fill="#0f72a3"
       id="rect79" />
    <g
       transform="translate(17.1 44.7)"
       filter="url(#filter2090)"
       mask="url(#mask1653-9)"
       id="g89">
      <rect
         x="246"
         y="-24.8"
         width="24.3"
         height="20.5"
         fill="#b4b4ff"
         id="rect81" />
      <circle
         cx="256"
         cy="-11.6"
         r="2.65"
         fill="#ffff7b"
         id="circle83" />
      <path
         d="m251-12.9-4.79 6.99v1.64h14.9l0.791-1.15z"
         fill="#a36e42"
         id="path85" />
      <path
         d="m262-19-10.7 14.7h19.6v-8.17z"
         fill="#be7d43"
         id="path87" />
    </g>
    <rect
       x="292"
       y="23.2"
       width="63.5"
       height="7.05"
       rx="1.88"
       ry="1.49"
       fill="#fff"
       fill-opacity=".462"
       id="rect91" />
    <rect
       x="292"
       y="32.3"
       width="63.5"
       height="4.75"
       rx="1.88"
       ry="1.01"
       fill="#fff"
       fill-opacity=".255"
       id="rect93" />
  </g>
  <g
     transform="matrix(1 0 0 1 3.42 64.8)"
     stroke-width="0"
     id="g113">
    <rect
       x="257"
       y="15"
       width="112"
       height="30.5"
       rx="2"
       ry="2"
       fill="#0f72a3"
       id="rect97" />
    <g
       transform="translate(17.1 44.7)"
       mask="url(#mask1653-9-8)"
       id="g107">
      <rect
         x="246"
         y="-24.8"
         width="24.3"
         height="20.5"
         fill="#b4b4ff"
         id="rect99" />
      <path
         d="m251-12.9-4.79 6.99v1.64h14.9l0.791-1.15z"
         fill="#a36e42"
         id="path101" />
      <path
         d="m262-19-10.7 14.7h19.6v-8.17z"
         fill="#be7d43"
         id="path103" />
      <circle
         cx="254"
         cy="-18.5"
         r="2.65"
         fill="#ffff7b"
         id="circle105" />
    </g>
    <rect
       x="292"
       y="23.2"
       width="63.5"
       height="7.05"
       rx="1.88"
       ry="1.49"
       fill="#fff"
       fill-opacity=".462"
       id="rect109" />
    <rect
       x="292"
       y="32.3"
       width="63.5"
       height="4.75"
       rx="1.88"
       ry="1.01"
       fill="#fff"
       fill-opacity=".255"
       id="rect111" />
  </g>
  <g
     transform="matrix(1 0 0 1 3.42 102)"
     mask="url(#mask1901)"
     stroke-width="0"
     id="g131">
    <rect
       x="257"
       y="15"
       width="112"
       height="30.5"
       rx="2"
       ry="2"
       fill="#0f72a3"
       id="rect115" />
    <g
       transform="translate(17.1 44.7)"
       mask="url(#mask1653-9-8-2)"
       id="g125">
      <rect
         x="246"
         y="-24.8"
         width="24.3"
         height="20.5"
         fill="#b4b4ff"
         id="rect117" />
      <path
         d="m251-12.9-4.79 6.99v1.64h14.9l0.791-1.15z"
         fill="#a36e42"
         id="path119" />
      <path
         d="m262-19-10.7 14.7h19.6v-8.17z"
         fill="#be7d43"
         id="path121" />
      <circle
         cx="254"
         cy="-18.5"
         r="2.65"
         fill="#ffff7b"
         id="circle123" />
    </g>
    <rect
       x="292"
       y="23.2"
       width="63.5"
       height="7.05"
       rx="1.88"
       ry="1.49"
       fill="#fff"
       fill-opacity=".462"
       id="rect127" />
    <rect
       x="292"
       y="32.3"
       width="63.5"
       height="4.75"
       rx="1.88"
       ry="1.01"
       fill="#fff"
       fill-opacity=".255"
       id="rect129" />
  </g>
  <g
     id="g143">
    <path
       d="m174 6.15c-5.93 0.00672-10.7 4.82-10.7 10.8 1.2e-4 3.07 1.31 5.99 3.6 8.03-2.95 1.14-5.61 2.74-6.59 5.26-1.57 3.02-0.659 2.98 2.08 3.08 2.36 0.0776 3.68-0.179 6.18-0.238 4.69-0.111 12.9-0.13 17.8-0.11 3.19 0.0126-0.453-5.83-4.93-8.24 2.13-2.03 3.34-4.84 3.34-7.79 1.2e-4 -5.94-4.81-10.8-10.8-10.8h-0.0124z"
       fill="#fff"
       opacity=".99"
       id="path139" />
    <rect
       x="110"
       y="30.2"
       width="80.9"
       height="56.7"
       rx="1.88"
       ry="1.49"
       fill="#0f72a3"
       id="rect141" />
  </g>
  <g
     transform="matrix(1.66 0 0 1.66 -280 86.8)"
     stroke-width="0"
     id="g153">
    <rect
       x="246"
       y="-24.8"
       width="24.3"
       height="20.5"
       fill="#b4b4ff"
       id="rect145" />
    <path
       d="m251-12.9-4.79 6.99v1.64h14.9l0.791-1.15z"
       fill="#a36e42"
       id="path147" />
    <path
       d="m262-19-10.7 14.7h19.6v-8.17z"
       fill="#be7d43"
       id="path149" />
    <circle
       cx="254"
       cy="-18.5"
       r="2.65"
       fill="#ffff7b"
       id="circle151" />
  </g>
  <g
     fill="#fff"
     id="g161">
    <rect
       x="117"
       y="35"
       width="63.5"
       height="7.05"
       rx="1.88"
       ry="1.49"
       fill-opacity=".462"
       stroke-width="0"
       id="rect155" />
    <rect
       x="116"
       y="82.2"
       width="67.8"
       height="4.75"
       fill-opacity=".255"
       stroke-width="0"
       id="rect157" />
    <path
       d="m297 53.1c-5.93 0.0067-10.7 4.82-10.7 10.8 1.2e-4 3.07 1.31 5.99 3.6 8.03-3.77 1.46-6.84 4-8.46 7.5-2.83 6.11 2.02 10.7 5.08 12.5 2.5 1.44 5.3 2.22 8.18 2.31 6.39 4.5 13.1-9.86 0.846-2.31-0.932-0.339-1.83-0.759-2.7-1.26-5.4-3.19-6.11-6.82-2.58-10.6 0.441-0.011 0.881-0.0217 1.32-0.032 4.69-0.111 12.9-0.13 17.8-0.11 3.19 0.0126-0.453-5.83-4.93-8.24 2.13-2.03 3.34-4.84 3.34-7.79 1.2e-4 -5.94-4.81-10.8-10.8-10.8h-0.0124z"
       opacity=".99"
       id="path159" />
  </g>
  <path
     d="m196 26.1s-1.13-1.89 11.3 0.756 14.7 15.1 10.6 24.2c-4.16 9.07-14 30.2-1.13 38.2s34.8-5.67 34.8-5.67"
     fill="none"
     stroke="#fff"
     stroke-dasharray="10.095, 10.095"
     stroke-dashoffset="15.1"
     stroke-linecap="round"
     stroke-linejoin="round"
     stroke-width="3.36"
     style="paint-order:fill markers stroke"
     id="path163" />
  <g
     transform="translate(-.392)"
     id="g181">
    <path
       d="m410 129s-16.2-2e-3 -18.8-2e-3c-5.28 0-9.55-4.28-9.55-9.55 0-5.28 4.28-9.55 9.55-9.55 2.94 0 18.7-1.3e-4 18.7-1.3e-4 0.0495 6.37 0.0401 12.7 0.0176 19.1z"
       fill="#fff"
       fill-opacity=".317"
       stroke-width="0"
       style="paint-order:fill markers stroke"
       id="path165" />
    <g
       transform="translate(385.40915,17.069154)"
       fill="#ffffff"
       font-family="Lato"
       font-weight="bold"
       letter-spacing="0px"
       stroke-width="0.265px"
       word-spacing="0px"
       id="g179">
      <text
         transform="translate(4.64,102)"
         font-size="9.52px"
         style="line-height:0%;white-space:pre;shape-inside:url(#rect2214);display:inline"
         xml:space="preserve"
         id="text171"><tspan
           x="0"
           y="0"
           id="tspan1079">API</tspan></text>
      <text
         transform="translate(4.91,110)"
         font-size="6.35px"
         style="line-height:0%;white-space:pre;shape-inside:url(#rect2214-5);display:inline"
         xml:space="preserve"
         id="text177"><tspan
           x="0"
           y="0"
           id="tspan1081">REST</tspan></text>
    </g>
  </g>
  <g
     transform="translate(-.374 -2.46)"
     id="g189">
    <path
       d="m410 110s-16.2-2e-3 -18.8-2e-3c-5.28 0-9.55-4.28-9.55-9.55 0-5.28 4.28-9.55 9.55-9.55 2.94 0 18.7-1.3e-4 18.7-1.3e-4 0.0495 6.37 0.0401 12.7 0.0176 19.1z"
       fill="#fff"
       fill-opacity=".317"
       stroke-width="0"
       style="paint-order:fill markers stroke"
       id="path183" />
    <g
       transform="matrix(0.0761,0,0,0.0761,386.88732,95.729279)"
       id="g187">
      <path
         d="m 14.6,21.8 c 1.46,-1.98 3.64,-3.02 6.56,-3.23 5.31,-0.416 8.33,2.08 9.05,7.49 3.23,21.8 6.76,40.2 10.5,55.3 l 22.8,-43.4 c 2.08,-3.95 4.68,-6.04 7.8,-6.24 4.58,-0.312 7.39,2.6 8.53,8.74 2.6,13.8 5.93,25.6 9.89,35.6 2.71,-26.4 7.28,-45.5 13.7,-57.2 1.56,-2.91 3.85,-4.37 6.87,-4.58 2.39,-0.208 4.58,0.52 6.56,2.08 1.98,1.56 3.02,3.54 3.23,5.93 0.104,1.87 -0.208,3.43 -1.04,5 -4.06,7.49 -7.39,20.1 -10.1,37.6 -2.6,17 -3.54,30.2 -2.91,39.6 0.208,2.6 -0.208,4.89 -1.25,6.87 -1.25,2.29 -3.12,3.54 -5.52,3.75 -2.71,0.208 -5.52,-1.04 -8.22,-3.85 -9.68,-9.89 -17.4,-24.7 -23,-44.3 -6.76,13.3 -11.8,23.3 -15,30 -6.14,11.8 -11.3,17.8 -15.7,18.1 -2.81,0.208 -5.2,-2.19 -7.28,-7.18 -5.31,-13.6 -11,-40 -17.2,-79 -0.416,-2.71 0.208,-5.1 1.66,-6.97 z m 224,16.3 C 234.85,31.54 229.34,27.6 222,26 c -1.98,-0.416 -3.85,-0.624 -5.62,-0.624 -9.99,0 -18.1,5.2 -24.5,15.6 -5.41,8.85 -8.12,18.6 -8.12,29.3 0,8.01 1.66,14.9 5,20.6 3.75,6.56 9.26,10.5 16.6,12.1 1.98,0.416 3.85,0.624 5.62,0.624 10.1,0 18.2,-5.2 24.5,-15.6 5.41,-8.95 8.12,-18.7 8.12,-29.4 0.104,-8.12 -1.66,-14.9 -5,-20.5 z m -13.1,28.8 c -1.46,6.87 -4.06,12 -7.91,15.4 -3.02,2.71 -5.83,3.85 -8.43,3.33 -2.5,-0.52 -4.58,-2.71 -6.14,-6.76 -1.25,-3.23 -1.87,-6.45 -1.87,-9.47 0,-2.6 0.208,-5.2 0.728,-7.6 0.937,-4.27 2.71,-8.43 5.52,-12.4 3.43,-5.1 7.08,-7.18 10.8,-6.45 2.5,0.52 4.58,2.71 6.14,6.76 1.25,3.23 1.87,6.45 1.87,9.47 0,2.71 -0.208,5.31 -0.728,7.7 z m -52,-28.8 c -3.75,-6.56 -9.37,-10.5 -16.6,-12.1 -1.98,-0.416 -3.85,-0.624 -5.62,-0.624 -9.99,0 -18.1,5.2 -24.5,15.6 -5.41,8.85 -8.12,18.6 -8.12,29.3 0,8.01 1.66,14.9 5,20.6 3.75,6.56 9.26,10.5 16.6,12.1 1.98,0.416 3.85,0.624 5.62,0.624 10.1,0 18.2,-5.2 24.5,-15.6 5.41,-8.95 8.12,-18.7 8.12,-29.4 0,-8.12 -1.66,-14.9 -5,-20.5 z m -13.2,28.8 c -1.46,6.87 -4.06,12 -7.91,15.4 -3.02,2.71 -5.83,3.85 -8.43,3.33 -2.5,-0.52 -4.58,-2.71 -6.14,-6.76 -1.25,-3.23 -1.87,-6.45 -1.87,-9.47 0,-2.6 0.208,-5.2 0.728,-7.6 0.937,-4.27 2.71,-8.43 5.52,-12.4 3.43,-5.1 7.08,-7.18 10.8,-6.45 2.5,0.52 4.58,2.71 6.14,6.76 1.25,3.23 1.87,6.45 1.87,9.47 0.104,2.71 -0.208,5.31 -0.728,7.7 z"
         fill="#ffffff"
         id="path185" />
    </g>
  </g>
  <path
     d="m409 85.4s-16.2-2e-3 -18.8-2e-3c-5.28 0-9.55-4.28-9.55-9.55 0-5.28 4.28-9.55 9.55-9.55 2.94 0 18.7-1.3e-4 18.7-1.3e-4 0.0495 6.37 0.0401 12.7 0.0176 19.1z"
     fill="#fff"
     fill-opacity=".317"
     stroke-width="0"
     style="paint-order:fill markers stroke"
     id="path191" />
  <text
     transform="translate(387.07723,79.417293)"
     fill="#ffffff"
     font-family="Lato"
     font-size="9.52px"
     font-weight="bold"
     letter-spacing="0px"
     stroke-width="0.265px"
     word-spacing="0px"
     style="line-height:0%;white-space:pre;shape-inside:url(#rect2214-2-6);display:inline"
     xml:space="preserve"
     id="text197"><tspan
       x="0"
       y="0"
       id="tspan1083">CPT</tspan></text>
  <path
     d="m409 63.7s-16.2-2e-3 -18.8-2e-3c-5.28 0-9.55-4.28-9.55-9.55 0-5.28 4.28-9.55 9.55-9.55 2.94 0 18.7-1.29e-4 18.7-1.29e-4 0.0495 6.37 0.0401 12.7 0.0176 19.1z"
     fill="#fff"
     fill-opacity=".317"
     stroke-width="0"
     style="paint-order:fill markers stroke"
     id="path199" />
  <rect
     x="406"
     y="110"
     width="3.7"
     height="19.1"
     fill="none"
     style="paint-order:fill markers stroke"
     id="rect201" />
  <path
     d="m399 47.6a1.77 1.77 0 0 0-1.75 1.77 1.77 1.77 0 0 0 0.141 0.693l-5.12 3.1a1.77 1.77 0 0 0-1.28-0.548 1.77 1.77 0 0 0-1.77 1.77 1.77 1.77 0 0 0 1.77 1.77 1.77 1.77 0 0 0 1.32-0.595l4.41 2.48a1.77 1.77 0 0 0-0.143 0.696 1.77 1.77 0 0 0 1.77 1.77 1.77 1.77 0 0 0 1.77-1.77 1.77 1.77 0 0 0-1.77-1.77 1.77 1.77 0 0 0-1.31 0.577l-4.41-2.48a1.77 1.77 0 0 0 0.134-0.675 1.77 1.77 0 0 0-0.159-0.734l5.1-3.09a1.77 1.77 0 0 0 1.31 0.581 1.77 1.77 0 0 0 1.77-1.77 1.77 1.77 0 0 0-1.77-1.77 1.77 1.77 0 0 0-0.0192 0z"
     fill="#fff"
     stroke-width="0"
     style="paint-order:fill markers stroke"
     id="path203" />
  <g
     transform="translate(5e-7 -43.4)"
     id="g213">
    <path
       d="m409 85.4s-16.2-2e-3 -18.8-2e-3c-5.28 0-9.55-4.28-9.55-9.55 0-5.28 4.28-9.55 9.55-9.55 2.94 0 18.7-1.3e-4 18.7-1.3e-4 0.0495 6.37 0.0401 12.7 0.0176 19.1z"
       fill="#fff"
       fill-opacity=".317"
       stroke-width="0"
       style="paint-order:fill markers stroke"
       id="path205" />
    <text
       transform="translate(385.94032,78.38285)"
       fill="#ffffff"
       font-family="Lato"
       font-size="7.94px"
       font-weight="bold"
       letter-spacing="0px"
       stroke-width="0.265px"
       word-spacing="0px"
       style="line-height:0%;white-space:pre;shape-inside:url(#rect2214-2-6-3);display:inline"
       xml:space="preserve"
       id="text211"><tspan
         x="0"
         y="0"
         id="tspan1085">POLL</tspan></text>
  </g>
</svg>
