<?xml version="1.0" encoding="UTF-8" standalone="no"?>
<svg
   xmlns:dc="http://purl.org/dc/elements/1.1/"
   xmlns:cc="http://creativecommons.org/ns#"
   xmlns:rdf="http://www.w3.org/1999/02/22-rdf-syntax-ns#"
   xmlns:svg="http://www.w3.org/2000/svg"
   xmlns="http://www.w3.org/2000/svg"
   xmlns:sodipodi="http://sodipodi.sourceforge.net/DTD/sodipodi-0.dtd"
   xmlns:inkscape="http://www.inkscape.org/namespaces/inkscape"
   width="600"
   height="600"
   viewBox="0 0 158.75 158.75"
   version="1.1"
   id="svg8"
   inkscape:version="1.0.2 (e86c870879, 2021-01-15)"
   sodipodi:docname="icon.svg">
  <defs
     id="defs2" />
  <sodipodi:namedview
     id="base"
     pagecolor="#ffffff"
     bordercolor="#666666"
     borderopacity="1.0"
     inkscape:pageopacity="0.0"
     inkscape:pageshadow="2"
     inkscape:zoom="0.49497475"
     inkscape:cx="263.31499"
     inkscape:cy="503.69052"
     inkscape:document-units="mm"
     inkscape:current-layer="layer1"
     showgrid="false"
     fit-margin-top="0"
     fit-margin-left="0"
     fit-margin-right="0"
     fit-margin-bottom="0"
     units="px"
     inkscape:window-width="1366"
     inkscape:window-height="719"
     inkscape:window-x="0"
     inkscape:window-y="0"
     inkscape:window-maximized="1"
     inkscape:document-rotation="0" />
  <metadata
     id="metadata5">
    <rdf:RDF>
      <cc:Work
         rdf:about="">
        <dc:format>image/svg+xml</dc:format>
        <dc:type
           rdf:resource="http://purl.org/dc/dcmitype/StillImage" />
        <dc:title></dc:title>
      </cc:Work>
    </rdf:RDF>
  </metadata>
  <g
     inkscape:label="Capa 1"
     inkscape:groupmode="layer"
     id="layer1"
     transform="translate(-33.141422,-56.457424)">
    <rect
       style="fill:#040332;fill-opacity:1;stroke:none;stroke-width:0;stroke-miterlimit:4;stroke-dasharray:none;stroke-opacity:1"
       id="rect4628"
       width="152.70744"
       height="152.70744"
       x="36.162701"
       y="59.478703"
       ry="76.353722"
       rx="76.353722" />
    <circle
       style="opacity:0.99;fill:#ffffff;fill-opacity:1;stroke:none;stroke-width:0.360055;stroke-miterlimit:4;stroke-dasharray:none;stroke-opacity:1"
       id="path815"
       cx="112.39276"
       cy="102.10939"
       r="25.8575" />
    <path
       style="opacity:0.99;fill:#ffffff;fill-opacity:1;stroke:none;stroke-width:0.424872;stroke-miterlimit:4;stroke-dasharray:none;stroke-opacity:1"
       d="m 113.09567,118.38467 c -27.491671,-0.3839 -43.544174,19.08874 -43.893261,44.06773 -0.08619,6.938 1.583444,13.72135 4.778344,19.86583 -1.906999,18.69531 36.057777,15.78491 5.843227,-0.94771 -0.386354,-2.35478 -0.56898,-4.74117 -0.541935,-7.13746 0.185222,-13.27121 6.642651,-25.1196 16.778156,-33.25342 1.061517,-0.0265 2.118452,-0.0522 3.171871,-0.0771 11.284548,-0.26615 31.051368,-0.3115 42.838028,-0.26466 9.58293,0.038 -6.5069,-21.96469 -20.0875,-22.25324 z"
       id="path817"
       inkscape:connector-curvature="0"
       sodipodi:nodetypes="ccccccsscc" />
    <path
       style="fill:#0054d1;fill-opacity:1;stroke:none;stroke-width:1.69949;stroke-miterlimit:4;stroke-dasharray:none;stroke-opacity:1"
       d="m 97.26419,148.02454 h 54.19953 c 8.0311,0.081 7.94586,11.24564 0.13383,11.24138 h -43.2365 c -8.18564,0 -11.09686,0.10222 -11.09686,-5.92766 z"
       id="rect836"
       inkscape:connector-curvature="0"
       sodipodi:nodetypes="cccccc" />
    <path
       style="fill:#ffcc00;fill-opacity:1;stroke:none;stroke-width:1.69949;stroke-miterlimit:4;stroke-dasharray:none;stroke-opacity:1"
       d="m 97.26419,167.76086 h 61.2923 c 8.0311,0.081 7.94586,11.24565 0.13382,11.24139 h -50.32926 c -8.18564,0 -11.09686,0.10222 -11.09686,-5.92766 z"
       id="rect836-5"
       inkscape:connector-curvature="0"
       sodipodi:nodetypes="cccccc" />
    <path
       style="fill:#0054d1;fill-opacity:1;stroke:none;stroke-width:1.69949;stroke-miterlimit:4;stroke-dasharray:none;stroke-opacity:1"
       d="M 97.26419,187.49719 H 135.566 c 8.03112,0.081 7.94587,11.24565 0.13384,11.24139 h -27.33879 c -8.18564,0 -11.09686,0.10221 -11.09686,-5.92766 z"
       id="rect836-6"
       inkscape:connector-curvature="0"
       sodipodi:nodetypes="cccccc" />
  </g>
</svg>
